<?xml version="1.0" encoding="UTF-8"?>
<svg width="26px" height="26px" viewBox="0 0 26 26" version="1.1" xmlns="http://www.w3.org/2000/svg" xmlns:xlink="http://www.w3.org/1999/xlink">
    <g id="Desktop" stroke="none" stroke-width="1" fill="none" fill-rule="evenodd">
        <g id="icons" transform="translate(-263.000000, -262.000000)">
            <g id="icon/dark/volume_mute" transform="translate(263.000000, 262.000000)" fill="#F2F2F2">
                <path d="M1.6251625,8.1235375 L6.5001625,8.1235375 L13.0001625,3.2501625 L13.0001625,22.7501625 L6.5001625,17.8735375 L1.6251625,17.8735375 L1.6251625,8.1235375 Z M11.3751625,6.4985375 L7.0412875,9.7485375 L3.2501625,9.7485375 L3.2501625,16.2485375 L7.0412875,16.2485375 L11.3751625,19.4985375 L11.3751625,6.4985375 Z M16.2660875,9.9984625 L17.4165875,8.8528375 L20.4000875,11.8477125 L23.3803375,8.8674625 L24.5275875,10.0179625 L21.5473375,12.9982125 L24.5373375,16.0012125 L23.3868375,17.1452125 L20.3984625,14.1454625 L17.4003375,17.1435875 L16.2514625,15.9947125 L19.2528375,12.9949625 L16.2660875,9.9984625 Z" id="Shape"></path>
            </g>
        </g>
    </g>
</svg>