<?xml version="1.0" encoding="UTF-8"?>
<svg width="26px" height="26px" viewBox="0 0 26 26" version="1.1" xmlns="http://www.w3.org/2000/svg" xmlns:xlink="http://www.w3.org/1999/xlink">
    <g id="Desktop" stroke="none" stroke-width="1" fill="none" fill-rule="evenodd">
        <g id="icons" transform="translate(-232.000000, -262.000000)">
            <g id="icon/dark/volume_high" transform="translate(232.000000, 262.000000)" fill="#F2F2F2">
                <path d="M1.6251625,8.1235375 L6.5001625,8.1235375 L13.0001625,3.2501625 L13.0001625,22.7501625 L6.5001625,17.8735375 L1.6251625,17.8735375 L1.6251625,8.1235375 Z M11.3751625,6.4985375 L7.0412875,9.7485375 L3.2501625,9.7485375 L3.2501625,16.2485375 L7.0412875,16.2485375 L11.3751625,19.4985375 L11.3751625,6.4985375 Z M16.979625,17.7081125 L16.251625,16.2537375 C17.5045,15.6248625 18.28125,14.3784875 18.28125,12.9988625 C18.28125,11.6192375 17.5045,10.3728625 16.251625,9.7439875 L16.979625,8.2912375 C18.785,9.1963625 19.90625,11.0017375 19.90625,12.9988625 C19.90625,14.9976125 18.785,16.8013625 16.979625,17.7081125 Z M18.255575,5.7395 L18.98195,4.285125 C22.308325,5.95075 24.375325,9.290125 24.375325,12.998375 C24.375325,16.706625 22.308325,20.044375 18.98195,21.71325 L18.25395,20.258875 C21.027825,18.8695 22.750325,16.0875 22.750325,12.998375 C22.750325,9.90925 21.027825,7.12725 18.255575,5.7395 Z" id="Shape"></path>
            </g>
        </g>
    </g>
</svg>